M48
;Layer_Color=9474304
;FILE_FORMAT=2:5
INCH,LZ
;TYPE=PLATED
T1F00S00C0.03150
T2F00S00C0.03740
T3F00S00C0.03937
T4F00S00C0.04134
T5F00S00C0.04724
T6F00S00C0.05079
T7F00S00C0.11811
;TYPE=NON_PLATED
%
T01
X0014Y0028
X0031Y005
X0113677
X011085Y0028
X0139Y0075
X0168Y01055
X0085323
X004215Y0075
X0018Y0065
Y016185
T02
X0223Y0005894
Y01555
T03
X0213764Y01945
X0184236
T04
X0146079Y0034433
X0155921
X0054Y0121972
Y0181028
X00195Y0181158
Y0191
T05
X0100909Y01295
X00885Y0142409
Y0183591
X0102319Y01895
X01435
X01585Y0177591
Y0136409
X0142091Y01295
T06
X0163Y00815
X0173
X0183
T07
X00055Y00075
X02495Y0009
X00105Y0221
X02495
M30
