G04*
G04 #@! TF.GenerationSoftware,Altium Limited,Altium Designer,22.1.2 (22)*
G04*
G04 Layer_Color=65535*
%FSLAX23Y23*%
%MOIN*%
G70*
G04*
G04 #@! TF.SameCoordinates,0D25F84C-DA74-481A-8B86-6EB8D3C02F9D*
G04*
G04*
G04 #@! TF.FilePolarity,Positive*
G04*
G01*
G75*
%ADD10C,0.006*%
%ADD11C,0.008*%
%ADD12C,0.005*%
%ADD13C,0.010*%
%ADD14R,0.110X0.031*%
%ADD15R,0.031X0.110*%
D10*
X2315Y1945D02*
G03*
X2315Y1945I-325J0D01*
G01*
D11*
X199Y1686D02*
G03*
X199Y1686I-4J0D01*
G01*
X1339Y344D02*
G03*
X1339Y344I-4J0D01*
G01*
X1713Y1783D02*
Y2107D01*
X830Y1526D02*
Y1734D01*
X940Y1526D02*
Y1734D01*
X830D02*
X940D01*
X1444Y1055D02*
X1643D01*
X891D02*
X1089D01*
Y996D02*
Y1114D01*
Y996D02*
X1444D01*
Y1114D01*
X1089D02*
X1444D01*
X2230Y101D02*
Y492D01*
Y1122D02*
Y1513D01*
X2122Y1122D02*
X2338D01*
X2122Y492D02*
Y1122D01*
Y492D02*
X2338D01*
Y1122D01*
X180Y1311D02*
Y1581D01*
Y687D02*
Y957D01*
X103D02*
X257D01*
Y1311D01*
X103D02*
X257D01*
X103Y957D02*
Y1311D01*
X1125Y1840D02*
Y1950D01*
X1333D01*
X1125Y1840D02*
X1333D01*
X1523Y689D02*
Y874D01*
Y689D02*
X1937D01*
Y815D01*
X1111Y1240D02*
Y1350D01*
X1319D01*
X1111Y1240D02*
X1319D01*
X1530Y1466D02*
X1640D01*
X1530D02*
Y1674D01*
X1640Y1466D02*
Y1674D01*
X729Y827D02*
X1083D01*
Y673D02*
Y827D01*
X729Y673D02*
X1083D01*
X729D02*
Y827D01*
X459Y750D02*
X729D01*
X1083D02*
X1353D01*
X546Y559D02*
X901D01*
Y441D02*
Y559D01*
X546Y441D02*
X901D01*
X546D02*
Y559D01*
X347Y500D02*
X546D01*
X901D02*
X1099D01*
X447Y357D02*
X801D01*
Y203D02*
Y357D01*
X447Y203D02*
X801D01*
X447D02*
Y357D01*
X177Y280D02*
X447D01*
X801D02*
X1071D01*
D12*
X373Y993D02*
Y2037D01*
X707Y993D02*
Y2037D01*
X373D02*
X707D01*
X373Y993D02*
X707D01*
X61Y2006D02*
X288D01*
Y1715D02*
Y2006D01*
X61Y1715D02*
X288D01*
X61D02*
Y2006D01*
X1656Y252D02*
Y478D01*
X1364Y252D02*
X1656D01*
X1364D02*
Y478D01*
X1656D01*
D13*
X180Y2055D02*
X220D01*
X200Y2075D02*
Y2035D01*
X1010Y220D02*
X1000Y230D01*
X980D01*
X970Y220D01*
Y180D01*
X980Y170D01*
X1000D01*
X1010Y180D01*
Y200D01*
X990D01*
X1030Y170D02*
Y230D01*
X1070Y170D01*
Y230D01*
X1090D02*
Y170D01*
X1120D01*
X1130Y180D01*
Y220D01*
X1120Y230D01*
X1090D01*
X550Y705D02*
X540Y715D01*
X520D01*
X510Y705D01*
Y665D01*
X520Y655D01*
X540D01*
X550Y665D01*
Y685D01*
X530D01*
X570Y655D02*
Y715D01*
X610Y655D01*
Y715D01*
X630D02*
Y655D01*
X660D01*
X670Y665D01*
Y705D01*
X660Y715D01*
X630D01*
X90Y1820D02*
X130D01*
X116Y402D02*
Y462D01*
X146D01*
X156Y452D01*
Y432D01*
X146Y422D01*
X116D01*
X136D02*
X156Y402D01*
X216Y462D02*
X196Y452D01*
X176Y432D01*
Y412D01*
X186Y402D01*
X206D01*
X216Y412D01*
Y422D01*
X206Y432D01*
X176D01*
X397Y872D02*
Y932D01*
X427D01*
X437Y922D01*
Y902D01*
X427Y892D01*
X397D01*
X417D02*
X437Y872D01*
X497Y932D02*
X457D01*
Y902D01*
X477Y912D01*
X487D01*
X497Y902D01*
Y882D01*
X487Y872D01*
X467D01*
X457Y882D01*
X2030Y1670D02*
Y1730D01*
X2060D01*
X2070Y1720D01*
Y1700D01*
X2060Y1690D01*
X2030D01*
X2050D02*
X2070Y1670D01*
X2120D02*
Y1730D01*
X2090Y1700D01*
X2130D01*
X345Y1255D02*
X285D01*
Y1285D01*
X295Y1295D01*
X315D01*
X325Y1285D01*
Y1255D01*
Y1275D02*
X345Y1295D01*
X295Y1315D02*
X285Y1325D01*
Y1345D01*
X295Y1355D01*
X305D01*
X315Y1345D01*
Y1335D01*
Y1345D01*
X325Y1355D01*
X335D01*
X345Y1345D01*
Y1325D01*
X335Y1315D01*
X286Y604D02*
Y664D01*
X316D01*
X326Y654D01*
Y634D01*
X316Y624D01*
X286D01*
X306D02*
X326Y604D01*
X386D02*
X346D01*
X386Y644D01*
Y654D01*
X376Y664D01*
X356D01*
X346Y654D01*
X829Y1159D02*
Y1219D01*
X859D01*
X869Y1209D01*
Y1189D01*
X859Y1179D01*
X829D01*
X849D02*
X869Y1159D01*
X889D02*
X909D01*
X899D01*
Y1219D01*
X889Y1209D01*
X1367Y579D02*
X1347D01*
X1337Y569D01*
Y529D01*
X1347Y519D01*
X1367D01*
X1377Y529D01*
Y569D01*
X1367Y579D01*
X1397Y519D02*
Y579D01*
X1427D01*
X1437Y569D01*
Y549D01*
X1427Y539D01*
X1397D01*
X60Y2107D02*
X80D01*
X70D01*
Y2047D01*
X60D01*
X80D01*
X110D02*
Y2107D01*
X140D01*
X150Y2097D01*
Y2077D01*
X140Y2067D01*
X110D01*
X1640Y650D02*
X1660D01*
X1650D01*
Y590D01*
X1640D01*
X1660D01*
X1730Y640D02*
X1720Y650D01*
X1700D01*
X1690Y640D01*
Y600D01*
X1700Y590D01*
X1720D01*
X1730Y600D01*
X1750Y590D02*
X1770D01*
X1760D01*
Y650D01*
X1750Y640D01*
X1536Y1909D02*
Y1849D01*
X1566D01*
X1576Y1859D01*
Y1899D01*
X1566Y1909D01*
X1536D01*
X1626Y1849D02*
Y1909D01*
X1596Y1879D01*
X1636D01*
X836Y1969D02*
Y1909D01*
X866D01*
X876Y1919D01*
Y1959D01*
X866Y1969D01*
X836D01*
X896Y1959D02*
X906Y1969D01*
X926D01*
X936Y1959D01*
Y1949D01*
X926Y1939D01*
X916D01*
X926D01*
X936Y1929D01*
Y1919D01*
X926Y1909D01*
X906D01*
X896Y1919D01*
X976Y1444D02*
Y1384D01*
X1006D01*
X1016Y1394D01*
Y1434D01*
X1006Y1444D01*
X976D01*
X1076Y1384D02*
X1036D01*
X1076Y1424D01*
Y1434D01*
X1066Y1444D01*
X1046D01*
X1036Y1434D01*
X990Y2044D02*
Y1984D01*
X1020D01*
X1030Y1994D01*
Y2034D01*
X1020Y2044D01*
X990D01*
X1050Y1984D02*
X1070D01*
X1060D01*
Y2044D01*
X1050Y2034D01*
X1550Y2180D02*
X1540Y2190D01*
X1520D01*
X1510Y2180D01*
Y2140D01*
X1520Y2130D01*
X1540D01*
X1550Y2140D01*
X1610Y2130D02*
X1570D01*
X1610Y2170D01*
Y2180D01*
X1600Y2190D01*
X1580D01*
X1570Y2180D01*
X412Y2127D02*
X402Y2137D01*
X382D01*
X372Y2127D01*
Y2087D01*
X382Y2077D01*
X402D01*
X412Y2087D01*
X432Y2077D02*
X452D01*
X442D01*
Y2137D01*
X432Y2127D01*
D14*
X885Y1538D02*
D03*
X1585Y1663D02*
D03*
D15*
X1322Y1895D02*
D03*
X1308Y1295D02*
D03*
M02*
