M48
;Layer_Color=9474304
;FILE_FORMAT=2:5
INCH,LZ
T8F00S00C0.20000
%
G90
G05
T08
G00X0256488Y-00133
M15
G01X0258396Y-001271
G01X0260148Y-0011752
G01X0261571Y-0010571
G01X0269571Y-0002571
G01X0270835Y-0001025
G01X0271767Y0000742
G01X0272329Y0002659
G01X02725Y00045
G01X02725Y02265
G01X02723Y0228488
G01X027171Y0230396
G01X0270752Y0232148
G01X0269571Y0233571
G01X0265571Y0237571
G01X0264025Y0238835
G01X0262258Y0239767
G01X0260341Y0240329
G01X02585Y02405
G01X-00015Y02405
G01X-0003488Y02403
G01X-0005396Y023971
G01X-0007148Y0238752
G01X-0008676Y0237465
G01X-0009917Y02359
G01X-0010822Y0234119
G01X-0011355Y0232194
G01X-00115Y02305
G01X-00115Y-0001
G01X-00113Y-0002988
G01X-001071Y-0004896
G01X-0009752Y-0006648
G01X-0008571Y-0008071
G01X-0006071Y-0010571
G01X-0004525Y-0011835
G01X-0002758Y-0012767
G01X-0000841Y-0013329
G01X0001Y-00135
G01X02545Y-00135
G01X0256488Y-00133
M16
M17
M30
