G04*
G04 #@! TF.GenerationSoftware,Altium Limited,Altium Designer,22.1.2 (22)*
G04*
G04 Layer_Color=8388736*
%FSLAX23Y23*%
%MOIN*%
G70*
G04*
G04 #@! TF.SameCoordinates,1FA30AD4-028B-40E2-8717-06F9146BF8EF*
G04*
G04*
G04 #@! TF.FilePolarity,Negative*
G04*
G01*
G75*
%ADD10C,0.068*%
%ADD11R,0.061X0.061*%
%ADD12C,0.061*%
%ADD13R,0.087X0.087*%
%ADD14C,0.087*%
%ADD15C,0.055*%
%ADD16C,0.064*%
%ADD17R,0.087X0.087*%
%ADD18R,0.084X0.084*%
%ADD19C,0.084*%
%ADD20C,0.063*%
%ADD21R,0.070X0.070*%
%ADD22C,0.070*%
%ADD23R,0.070X0.070*%
D10*
X55Y75D02*
D03*
X2495Y2210D02*
D03*
X105D02*
D03*
X2495Y90D02*
D03*
D11*
X1842Y1945D02*
D03*
D12*
X2138D02*
D03*
D13*
X885Y1424D02*
D03*
X1585Y1776D02*
D03*
D14*
X885Y1836D02*
D03*
X1023Y1895D02*
D03*
X1009Y1295D02*
D03*
X1585Y1364D02*
D03*
D15*
X1680Y1055D02*
D03*
X853D02*
D03*
X180Y1619D02*
D03*
Y650D02*
D03*
X421Y750D02*
D03*
X1390D02*
D03*
X310Y500D02*
D03*
X1137D02*
D03*
X140Y280D02*
D03*
X1109D02*
D03*
D16*
X2230Y59D02*
D03*
Y1555D02*
D03*
D17*
X1435Y1895D02*
D03*
X1421Y1295D02*
D03*
D18*
X1830Y815D02*
D03*
D19*
X1730D02*
D03*
X1630D02*
D03*
D20*
X540Y1220D02*
D03*
Y1810D02*
D03*
D21*
X195Y1812D02*
D03*
D22*
Y1910D02*
D03*
X1559Y344D02*
D03*
D23*
X1461D02*
D03*
M02*
