G04*
G04 #@! TF.GenerationSoftware,Altium Limited,Altium Designer,22.1.2 (22)*
G04*
G04 Layer_Color=255*
%FSLAX23Y23*%
%MOIN*%
G70*
G04*
G04 #@! TF.SameCoordinates,1FA30AD4-028B-40E2-8717-06F9146BF8EF*
G04*
G04*
G04 #@! TF.FilePolarity,Positive*
G04*
G01*
G75*
%ADD11R,0.061X0.061*%
%ADD12C,0.061*%
%ADD25C,0.060*%
%ADD26R,0.079X0.079*%
%ADD27C,0.079*%
%ADD28C,0.047*%
%ADD29C,0.056*%
%ADD30R,0.079X0.079*%
%ADD31R,0.076X0.076*%
%ADD32C,0.076*%
%ADD33C,0.055*%
%ADD34R,0.062X0.062*%
%ADD35C,0.062*%
%ADD36R,0.062X0.062*%
D11*
X1842Y1945D02*
D03*
D12*
X2138D02*
D03*
D25*
X55Y75D02*
D03*
X2495Y2210D02*
D03*
X105D02*
D03*
X2495Y90D02*
D03*
D26*
X885Y1424D02*
D03*
X1585Y1776D02*
D03*
D27*
X885Y1836D02*
D03*
X1023Y1895D02*
D03*
X1009Y1295D02*
D03*
X1585Y1364D02*
D03*
D28*
X1680Y1055D02*
D03*
X853D02*
D03*
X180Y1619D02*
D03*
Y650D02*
D03*
X421Y750D02*
D03*
X1390D02*
D03*
X310Y500D02*
D03*
X1137D02*
D03*
X140Y280D02*
D03*
X1109D02*
D03*
D29*
X2230Y59D02*
D03*
Y1555D02*
D03*
D30*
X1435Y1895D02*
D03*
X1421Y1295D02*
D03*
D31*
X1830Y815D02*
D03*
D32*
X1730D02*
D03*
X1630D02*
D03*
D33*
X540Y1220D02*
D03*
Y1810D02*
D03*
D34*
X195Y1812D02*
D03*
D35*
Y1910D02*
D03*
X1559Y344D02*
D03*
D36*
X1461D02*
D03*
M02*
